<?xml version="1.0" encoding="UTF-8" standalone="no"?>
<!-- Created with Inkscape (http://www.inkscape.org/) -->

<svg
   xmlns:dc="http://purl.org/dc/elements/1.1/"
   xmlns:cc="http://creativecommons.org/ns#"
   xmlns:rdf="http://www.w3.org/1999/02/22-rdf-syntax-ns#"
   xmlns:svg="http://www.w3.org/2000/svg"
   xmlns="http://www.w3.org/2000/svg"
   xmlns:sodipodi="http://sodipodi.sourceforge.net/DTD/sodipodi-0.dtd"
   xmlns:inkscape="http://www.inkscape.org/namespaces/inkscape"
   width="187.22115mm"
   height="172.48744mm"
   viewBox="0 0 187.22114 172.48743"
   version="1.1"
   id="svg8"
   inkscape:version="0.92.4 (5da689c313, 2019-01-14)"
   sodipodi:docname="heart_choco.svg"
   inkscape:export-filename="C:\Users\alexr\Documents\Vie Asso\LaLouche\Chocopoly\chocopoly.png"
   inkscape:export-xdpi="37.62542"
   inkscape:export-ydpi="37.62542">
  <defs
     id="defs2">
    <clipPath
       clipPathUnits="userSpaceOnUse"
       id="clipPath1132">
      <path
         style="fill:none;stroke:#000000;stroke-width:0.26458332px;stroke-linecap:butt;stroke-linejoin:miter;stroke-opacity:1"
         d="m -570.55507,1382.7366 v 60.4762 l -60.66517,-13.4182 16.25298,-52.5386 z"
         id="path1134"
         inkscape:connector-curvature="0" />
    </clipPath>
    <clipPath
       clipPathUnits="userSpaceOnUse"
       id="clipPath1132-8">
      <path
         style="fill:none;stroke:#000000;stroke-width:0.26458332px;stroke-linecap:butt;stroke-linejoin:miter;stroke-opacity:1"
         d="m -570.55507,1382.7366 v 60.4762 l -60.66517,-13.4182 16.25298,-52.5386 z"
         id="path1134-1"
         inkscape:connector-curvature="0" />
    </clipPath>
    <clipPath
       clipPathUnits="userSpaceOnUse"
       id="clipPath1132-8-5">
      <path
         style="fill:none;stroke:#000000;stroke-width:0.26458332px;stroke-linecap:butt;stroke-linejoin:miter;stroke-opacity:1"
         d="m -570.55507,1382.7366 v 60.4762 l -60.66517,-13.4182 16.25298,-52.5386 z"
         id="path1134-1-8"
         inkscape:connector-curvature="0" />
    </clipPath>
    <clipPath
       clipPathUnits="userSpaceOnUse"
       id="clipPath1471">
      <path
         style="fill:none;stroke:#000000;stroke-width:0.26458332px;stroke-linecap:butt;stroke-linejoin:miter;stroke-opacity:1"
         d="m 1529.2079,1538.4932 24.0807,11.5369 c 0,0 11.4842,3.9637 9.8672,-3.0732 -1.617,-7.0369 -3.1805,-8.9949 -2.3112,-7.8849 0.8692,1.1101 -31.6367,-0.5788 -31.6367,-0.5788 z"
         id="path1473"
         inkscape:connector-curvature="0" />
    </clipPath>
    <clipPath
       clipPathUnits="userSpaceOnUse"
       id="clipPath1481">
      <path
         style="fill:none;stroke:#000000;stroke-width:0.26458332px;stroke-linecap:butt;stroke-linejoin:miter;stroke-opacity:1"
         d="m 1562.9383,1547.4983 -18.1943,-0.3845 -25.5309,-4.24 34.6704,-9.6071 z"
         id="path1483"
         inkscape:connector-curvature="0" />
    </clipPath>
    <clipPath
       clipPathUnits="userSpaceOnUse"
       id="clipPath1321">
      <path
         style="fill:none;stroke:#000000;stroke-width:0.30047819px;stroke-linecap:butt;stroke-linejoin:miter;stroke-opacity:1"
         d="m -598.96181,1432.3605 -11.28232,-39.0365 18.82778,-11.912 20.35744,-0.047 0.25104,2.9493 0.10707,46.7595 z"
         id="path1331"
         inkscape:connector-curvature="0" />
    </clipPath>
    <clipPath
       clipPathUnits="userSpaceOnUse"
       id="clipPath1481-2">
      <path
         style="fill:none;stroke:#000000;stroke-width:0.26458332px;stroke-linecap:butt;stroke-linejoin:miter;stroke-opacity:1"
         d="m 1562.9383,1547.4983 -18.1943,-0.3845 -25.5309,-4.24 34.6704,-9.6071 z"
         id="path1483-6"
         inkscape:connector-curvature="0" />
    </clipPath>
    <clipPath
       clipPathUnits="userSpaceOnUse"
       id="clipPath1321-1">
      <path
         style="fill:none;stroke:#000000;stroke-width:0.30047819px;stroke-linecap:butt;stroke-linejoin:miter;stroke-opacity:1"
         d="m -598.96181,1432.3605 -11.28232,-39.0365 18.82778,-11.912 20.35744,-0.047 0.25104,2.9493 0.10707,46.7595 z"
         id="path1331-8"
         inkscape:connector-curvature="0" />
    </clipPath>
    <clipPath
       clipPathUnits="userSpaceOnUse"
       id="clipPath1481-29">
      <path
         style="fill:none;stroke:#000000;stroke-width:0.26458332px;stroke-linecap:butt;stroke-linejoin:miter;stroke-opacity:1"
         d="m 1562.9383,1547.4983 -18.1943,-0.3845 -25.5309,-4.24 34.6704,-9.6071 z"
         id="path1483-7"
         inkscape:connector-curvature="0" />
    </clipPath>
    <clipPath
       clipPathUnits="userSpaceOnUse"
       id="clipPath1321-0">
      <path
         style="fill:none;stroke:#000000;stroke-width:0.30047819px;stroke-linecap:butt;stroke-linejoin:miter;stroke-opacity:1"
         d="m -598.96181,1432.3605 -11.28232,-39.0365 18.82778,-11.912 20.35744,-0.047 0.25104,2.9493 0.10707,46.7595 z"
         id="path1331-2"
         inkscape:connector-curvature="0" />
    </clipPath>
  </defs>
  <sodipodi:namedview
     id="base"
     pagecolor="#ffffff"
     bordercolor="#666666"
     borderopacity="1.0"
     inkscape:pageopacity="0.0"
     inkscape:pageshadow="2"
     inkscape:zoom="1"
     inkscape:cx="454.06771"
     inkscape:cy="306.49604"
     inkscape:document-units="mm"
     inkscape:current-layer="layer1"
     showgrid="false"
     inkscape:window-width="1920"
     inkscape:window-height="1001"
     inkscape:window-x="-9"
     inkscape:window-y="-9"
     inkscape:window-maximized="1"
     fit-margin-top="0"
     fit-margin-left="0"
     fit-margin-right="0"
     fit-margin-bottom="0" />
  <metadata
     id="metadata5">
    <rdf:RDF>
      <cc:Work
         rdf:about="">
        <dc:format>image/svg+xml</dc:format>
        <dc:type
           rdf:resource="http://purl.org/dc/dcmitype/StillImage" />
        <dc:title />
      </cc:Work>
    </rdf:RDF>
  </metadata>
  <g
     inkscape:label="Calque 1"
     inkscape:groupmode="layer"
     id="layer1"
     transform="translate(-1139.773,-2954.9876)">
    <path
       style="fill:#f6edd4;fill-opacity:1;stroke:none;stroke-width:0.26458332px;stroke-linecap:butt;stroke-linejoin:miter;stroke-opacity:1"
       d="m 1293.3815,3088.6092 23.7846,-63.6516 c 0,0 -50.514,-43.0304 -57.6233,-43.0304 -7.1094,0 -55.3783,-3.3676 -56.875,-3.7418 -1.4967,-0.3742 -33.676,4.8643 -35.5468,10.1028 -1.8709,5.2385 -8.9803,61.7393 -5.9869,68.1003 2.9934,6.361 54.2557,50.5139 54.2557,50.5139 z"
       id="path881"
       inkscape:connector-curvature="0"
       sodipodi:nodetypes="ccsscscc" />
    <g
       transform="translate(265.67593,506.87831)"
       id="g879"
       style="stroke:#f6edd4;stroke-width:30;stroke-miterlimit:4;stroke-dasharray:none;stroke-opacity:1">
      <path
         inkscape:export-ydpi="300"
         inkscape:export-xdpi="300"
         sodipodi:nodetypes="ccssc"
         inkscape:connector-curvature="0"
         id="path857"
         d="m 992.07586,2575.7039 c 5.0867,-11.0208 -36.6428,-23.0813 -37.8629,-10.8513 -0.2194,2.5067 2.5003,5.3429 6.5883,7.804 5.9949,3.6092 14.9324,6.4118 21.858,6.1854 4.7403,-0.1549 8.2656,-1.9315 9.4166,-3.1381 z"
         style="fill:#ff0000;fill-opacity:1;stroke:#f6edd4;stroke-width:30;stroke-linecap:round;stroke-linejoin:miter;stroke-miterlimit:4;stroke-dasharray:none;stroke-opacity:1" />
      <path
         style="fill:#be0000;fill-opacity:1;stroke:#f6edd4;stroke-width:30;stroke-linecap:butt;stroke-linejoin:miter;stroke-miterlimit:4;stroke-dasharray:none;stroke-opacity:1"
         d="m 964.93466,2522.0786 c 0,0 8.7407,-9.1659 37.51424,3.2129 14.1612,6.6478 1.6168,13.094 -0.1966,12.9183 l -27.49784,-1.0395 c -3.4912,-1.794 -12.4851,-9.417 -9.8198,-15.0917 z"
         id="path859"
         inkscape:connector-curvature="0"
         sodipodi:nodetypes="ccccc"
         inkscape:export-xdpi="300"
         inkscape:export-ydpi="300" />
      <ellipse
         style="opacity:1;fill:#6f2301;fill-opacity:1;stroke:#f6edd4;stroke-width:30;stroke-linecap:round;stroke-linejoin:round;stroke-miterlimit:4;stroke-dasharray:none;stroke-dashoffset:0;stroke-opacity:1;paint-order:fill markers stroke"
         id="ellipse861"
         cx="1065.0372"
         cy="2502.1682"
         rx="19.937084"
         ry="9.9685421"
         transform="rotate(1.73561)"
         inkscape:export-xdpi="300"
         inkscape:export-ydpi="300" />
      <path
         inkscape:export-ydpi="300"
         inkscape:export-xdpi="300"
         style="fill:#ff0000;fill-opacity:1;stroke:#f6edd4;stroke-width:30;stroke-linecap:butt;stroke-linejoin:miter;stroke-miterlimit:4;stroke-dasharray:none;stroke-opacity:1"
         d="m 954.24786,2564.6823 11.1108,-36.5616 c 1.1333,2.9912 1.7398,-0.9652 7.667,5.2108 l 15.6777,4.9335 c 6.3819,-0.4906 13.63584,3.2763 18.62184,-1.8932 l -15.78904,40.0281 c -3.3969,-0.055 -3.9811,-0.2814 -8.5577,0.01 -5.5277,0.3496 -16.7568,-2.8443 -21.2836,-6.1088 -4.1095,-2.9635 -4.3401,-2.85 -7.447,-5.6168 z"
         id="path863"
         inkscape:connector-curvature="0"
         sodipodi:nodetypes="ccccccsscc" />
      <path
         inkscape:export-ydpi="300"
         inkscape:export-xdpi="300"
         sodipodi:nodetypes="cccccccccccccc"
         inkscape:connector-curvature="0"
         id="path865"
         d="m 963.34726,2522.7385 c -0.1057,0 -0.2938,0.2134 -0.7152,0.7695 h 10e-4 l -8.3152,40.7158 -0.044,0.215 -0.026,0.2429 c -0.017,0.056 -0.021,0.1149 -0.035,0.1711 -0.2053,2.4811 2.4217,5.3934 6.5884,7.8038 l 2.6224,-12.9069 5.6017,-28.0484 -1.3705,-1.1979 c -1.6487,-1.655 -4.0845,-3.9264 -3.2065,-6.1696 -1.0358,-0.5889 -0.8688,-1.5994 -1.1012,-1.5953 z"
         style="color:#000000;font-style:normal;font-variant:normal;font-weight:normal;font-stretch:normal;font-size:medium;line-height:normal;font-family:sans-serif;font-variant-ligatures:normal;font-variant-position:normal;font-variant-caps:normal;font-variant-numeric:normal;font-variant-alternates:normal;font-feature-settings:normal;text-indent:0;text-align:start;text-decoration:none;text-decoration-line:none;text-decoration-style:solid;text-decoration-color:#000000;letter-spacing:normal;word-spacing:normal;text-transform:none;writing-mode:lr-tb;direction:ltr;text-orientation:mixed;dominant-baseline:auto;baseline-shift:baseline;text-anchor:start;white-space:normal;shape-padding:0;clip-rule:nonzero;display:inline;overflow:visible;visibility:visible;opacity:1;isolation:auto;mix-blend-mode:normal;color-interpolation:sRGB;color-interpolation-filters:linearRGB;solid-color:#000000;solid-opacity:1;vector-effect:none;fill:#a30000;fill-opacity:1;fill-rule:nonzero;stroke:#f6edd4;stroke-width:30;stroke-linecap:round;stroke-linejoin:miter;stroke-miterlimit:4;stroke-dasharray:none;stroke-dashoffset:0;stroke-opacity:1;color-rendering:auto;image-rendering:auto;shape-rendering:auto;text-rendering:auto;enable-background:accumulate" />
      <path
         inkscape:export-ydpi="300"
         inkscape:export-xdpi="300"
         sodipodi:nodetypes="ccccccsccc"
         inkscape:connector-curvature="0"
         id="path867"
         d="m 1009.9377,2533.2903 -0.9632,1.9286 c -2.0134,1.5608 -4.1539,3.487 -6.6761,4.47 l -3.01794,-0.3627 -11.6365,27.6794 -4.9847,11.8364 c 3.5617,-0.147 8.8091,-1.1862 9.8257,-3.4844 l 17.51584,-39.5977 c 0.2636,-1.4315 0.3488,-1.3488 -0.063,-2.4696 z"
         style="color:#000000;font-style:normal;font-variant:normal;font-weight:normal;font-stretch:normal;font-size:medium;line-height:normal;font-family:sans-serif;font-variant-ligatures:normal;font-variant-position:normal;font-variant-caps:normal;font-variant-numeric:normal;font-variant-alternates:normal;font-feature-settings:normal;text-indent:0;text-align:start;text-decoration:none;text-decoration-line:none;text-decoration-style:solid;text-decoration-color:#000000;letter-spacing:normal;word-spacing:normal;text-transform:none;writing-mode:lr-tb;direction:ltr;text-orientation:mixed;dominant-baseline:auto;baseline-shift:baseline;text-anchor:start;white-space:normal;shape-padding:0;clip-rule:nonzero;display:inline;overflow:visible;visibility:visible;opacity:1;isolation:auto;mix-blend-mode:normal;color-interpolation:sRGB;color-interpolation-filters:linearRGB;solid-color:#000000;solid-opacity:1;vector-effect:none;fill:#a30000;fill-opacity:1;fill-rule:nonzero;stroke:#f6edd4;stroke-width:30;stroke-linecap:round;stroke-linejoin:miter;stroke-miterlimit:4;stroke-dasharray:none;stroke-dashoffset:0;stroke-opacity:1;color-rendering:auto;image-rendering:auto;shape-rendering:auto;text-rendering:auto;enable-background:accumulate" />
      <path
         inkscape:export-ydpi="300"
         inkscape:export-xdpi="300"
         style="fill:none;fill-opacity:1;stroke:#f6edd4;stroke-width:30;stroke-linecap:round;stroke-linejoin:miter;stroke-miterlimit:4;stroke-dasharray:none;stroke-opacity:1"
         d="m 1008.8383,2535.9094 c 6.091,-12.7874 -43.87944,-25.5082 -45.38804,-11.411 -0.2916,7.7704 30.1234,17.0179 41.50064,14.0238 1.9125,-0.5033 3.2871,-1.3525 3.8874,-2.6128 z"
         id="path869"
         inkscape:connector-curvature="0"
         sodipodi:nodetypes="scss" />
      <path
         inkscape:export-ydpi="300"
         inkscape:export-xdpi="300"
         sodipodi:nodetypes="cc"
         inkscape:connector-curvature="0"
         id="path871"
         d="m 961.78266,2547.3144 c 1.3237,7.0181 28.6026,14.6831 33.6788,11.0421"
         style="fill:none;stroke:#f6edd4;stroke-width:30;stroke-linecap:butt;stroke-linejoin:miter;stroke-miterlimit:4;stroke-dasharray:none;stroke-opacity:1" />
      <ellipse
         transform="rotate(1.73561,-31185.367,-16133.035)"
         ry="9.9685421"
         rx="19.937084"
         cy="1550.2408"
         cx="1539.3593"
         id="ellipse873"
         style="opacity:1;fill:#6f2301;fill-opacity:1;stroke:#f6edd4;stroke-width:30;stroke-linecap:round;stroke-linejoin:round;stroke-miterlimit:4;stroke-dasharray:none;stroke-dashoffset:0;stroke-opacity:1;paint-order:fill markers stroke"
         clip-path="url(#clipPath1481-29)"
         inkscape:export-xdpi="300"
         inkscape:export-ydpi="300" />
      <path
         inkscape:export-ydpi="300"
         inkscape:export-xdpi="300"
         transform="matrix(0.79456863,0.16404227,-0.17477262,0.84777962,1656.3748,1444.9149)"
         clip-path="url(#clipPath1321-0)"
         sodipodi:open="true"
         d="m -569.14439,1421.0023 a 18.127384,18.127384 0 0 1 -24.83744,-1.4466 18.127384,18.127384 0 0 1 0,-24.8795 18.127384,18.127384 0 0 1 24.83744,-1.4466"
         sodipodi:end="5.4105207"
         sodipodi:start="0.87266463"
         sodipodi:ry="18.127384"
         sodipodi:rx="18.127384"
         sodipodi:cy="1407.116"
         sodipodi:cx="-580.79645"
         sodipodi:type="arc"
         id="path875"
         style="opacity:1;fill:none;fill-opacity:1;stroke:#f6edd4;stroke-width:35.79837036;stroke-linecap:square;stroke-linejoin:round;stroke-miterlimit:4;stroke-dasharray:none;stroke-dashoffset:0;stroke-opacity:1;paint-order:fill markers stroke" />
      <path
         style="color:#000000;font-style:normal;font-variant:normal;font-weight:normal;font-stretch:normal;font-size:medium;line-height:normal;font-family:sans-serif;font-variant-ligatures:normal;font-variant-position:normal;font-variant-caps:normal;font-variant-numeric:normal;font-variant-alternates:normal;font-feature-settings:normal;text-indent:0;text-align:start;text-decoration:none;text-decoration-line:none;text-decoration-style:solid;text-decoration-color:#000000;letter-spacing:normal;word-spacing:normal;text-transform:none;writing-mode:lr-tb;direction:ltr;text-orientation:mixed;dominant-baseline:auto;baseline-shift:baseline;text-anchor:start;white-space:normal;shape-padding:0;clip-rule:nonzero;display:inline;overflow:visible;visibility:visible;opacity:1;isolation:auto;mix-blend-mode:normal;color-interpolation:sRGB;color-interpolation-filters:linearRGB;solid-color:#000000;solid-opacity:1;vector-effect:none;fill:#f6edd4;fill-opacity:1;fill-rule:nonzero;stroke:none;stroke-width:30;stroke-linecap:square;stroke-linejoin:round;stroke-miterlimit:4;stroke-dasharray:none;stroke-dashoffset:0;stroke-opacity:1;paint-order:fill markers stroke;color-rendering:auto;image-rendering:auto;shape-rendering:auto;text-rendering:auto;enable-background:accumulate"
         d="m 929.85595,2448.1093 c -1.78586,2e-4 -3.57238,0.078 -5.35938,0.2233 -29.28548,2.3818 -50.3995,31.7447 -50.3995,69.4743 0,34.163 16.76022,66.2786 43.32449,83.5731 l -0.79891,-0.558 c 12.13247,9.0726 26.51398,17.1067 43.31984,19.2707 16.80583,2.1637 35.66083,-2.4971 52.52491,-16.0142 24.9109,-19.9668 40.8789,-41.7286 47.4273,-78.5735 2.8158,-15.8434 1.4093,-28.2954 -3.5745,-38.8311 v -5e-4 c -7.2166,-15.2551 -20.9536,-24.623 -34.9762,-28.6044 -13.8664,-3.9373 -28.59734,-3.32 -41.96229,1.4803 -3.87704,1.3925 -7.64879,3.1936 -11.2236,5.3859 -10.06604,-10.5553 -23.62687,-16.8349 -38.30256,-16.8259 z m 2.20141,40.2778 c 1.78993,0.1084 3.41405,0.9472 5.8415,3.04 3.23659,2.7903 6.79378,7.9375 9.13434,13.3718 3.26581,7.583 11.26874,12.1735 18.60195,12.088 7.33357,-0.085 15.22805,-4.8614 18.31621,-12.519 v 0 c 1.03484,-2.5657 3.69353,-5.2848 8.95241,-7.1737 5.12739,-1.8418 12.36013,-2.1116 17.51573,-0.6482 5.3514,1.5198 8.1028,3.7653 9.7431,7.2326 1.1988,2.5345 2.1346,6.39 0.7085,13.5702 -0.027,0.1373 -0.053,0.2751 -0.076,0.4131 -0.03,0.178 -0.337,1.3517 -0.5674,2.237 -3.0513,-2.1167 -4.8033,-3.0469 -3.9533,-2.2537 -3.2063,-2.9811 -7.555,-4.4128 -11.9052,-3.9195 -3.8068,-1.1031 -7.38918,-2.0477 -12.22817,-2.0527 h -0.0155 c -3.7152,0 -6.71364,0.5763 -11.08252,1.4621 -14.56505,2.9585 -16.4227,23.022 -2.64843,28.6044 l 10.49136,4.2479 -1.31053,-2.8578 c 0.31186,0.6651 0.67216,1.3065 1.07799,1.9188 l 0.0775,-0.1773 c 0.0994,0.1556 0.10133,0.1587 0.19896,0.3117 l -0.26458,-0.117 c 0.38466,0.5968 0.8112,1.1655 1.2764,1.7018 0.16484,0.2582 0.6077,0.9512 0.60773,0.9515 5e-5,0 3.44463,2.4892 3.44474,2.4892 10e-5,0 1.67399,0.7667 2.27944,0.9662 0.60547,0.1995 1.08354,0.3188 1.48778,0.4072 0.59917,0.1312 0.93723,0.1627 1.29603,0.2048 -0.20656,1.406 -0.6137,3.2036 -1.37046,5.1932 -2.5092,6.598 -9.37271,14.7482 -10.10222,15.2818 -10.02255,7.3319 -16.31513,7.9349 -23.46161,6.5874 -7.1465,-1.3478 -15.50818,-5.9947 -24.45382,-12.2349 -0.20879,-0.1456 -0.42125,-0.2859 -0.63717,-0.4207 -14.65112,-9.1485 -24.93491,-27.7143 -24.93491,-48.4875 0,-12.2682 2.7999,-19.2342 5.70767,-23.1246 2.90777,-3.8907 6.11219,-5.5015 10.37145,-6.1801 0.66934,-0.1067 1.28439,-0.1514 1.88103,-0.1151 z m 118.31524,34.3947 -0.076,0.4123 c 0.011,-0.053 0.015,-0.1051 0.026,-0.1585 0.015,-0.089 0.035,-0.1638 0.05,-0.2538 z m -61.73833,22.3716 0.0104,0.016 0.004,-0.01 z m 18.99213,7.0938 c -0.09,0.013 -0.2445,0.045 -0.3142,0.049 0.1049,-0.015 0.2096,-0.032 0.3142,-0.049 z m -1.2377,0.1902 c -0.3139,0.2146 -0.759,0.572 -2.1693,0.064 0.7237,0.031 1.4487,0.01 2.1693,-0.064 z"
         id="path877"
         inkscape:connector-curvature="0"
         sodipodi:nodetypes="ccscccssccccccccccccccccccccccsccccccccccsccccccccscccccccccccccccccc" />
    </g>
    <g
       id="g1493"
       transform="translate(265.67593,506.87831)">
      <path
         style="fill:#ff0000;fill-opacity:1;stroke:none;stroke-width:1.67528403;stroke-linecap:round;stroke-linejoin:miter;stroke-miterlimit:4;stroke-dasharray:none;stroke-opacity:0.37795279"
         d="m 992.07586,2575.7039 c 5.0867,-11.0208 -36.6428,-23.0813 -37.8629,-10.8513 -0.2194,2.5067 2.5003,5.3429 6.5883,7.804 5.9949,3.6092 14.9324,6.4118 21.858,6.1854 4.7403,-0.1549 8.2656,-1.9315 9.4166,-3.1381 z"
         id="path1452"
         inkscape:connector-curvature="0"
         sodipodi:nodetypes="ccssc"
         inkscape:export-xdpi="300"
         inkscape:export-ydpi="300" />
      <path
         inkscape:export-ydpi="300"
         inkscape:export-xdpi="300"
         sodipodi:nodetypes="ccccc"
         inkscape:connector-curvature="0"
         id="path1461"
         d="m 964.93466,2522.0786 c 0,0 8.7407,-9.1659 37.51424,3.2129 14.1612,6.6478 1.6168,13.094 -0.1966,12.9183 l -27.49784,-1.0395 c -3.4912,-1.794 -12.4851,-9.417 -9.8198,-15.0917 z"
         style="fill:#be0000;fill-opacity:1;stroke:none;stroke-width:0.26458332px;stroke-linecap:butt;stroke-linejoin:miter;stroke-opacity:1" />
      <ellipse
         inkscape:export-ydpi="300"
         inkscape:export-xdpi="300"
         transform="rotate(1.73561)"
         ry="9.9685421"
         rx="19.937084"
         cy="2502.1682"
         cx="1065.0372"
         id="ellipse1463"
         style="opacity:1;fill:#6f2301;fill-opacity:1;stroke:none;stroke-width:12.74422455;stroke-linecap:round;stroke-linejoin:round;stroke-miterlimit:4;stroke-dasharray:none;stroke-dashoffset:0;stroke-opacity:1;paint-order:fill markers stroke" />
      <path
         sodipodi:nodetypes="ccccccsscc"
         inkscape:connector-curvature="0"
         id="path1465"
         d="m 954.24786,2564.6823 11.1108,-36.5616 c 1.1333,2.9912 1.7398,-0.9652 7.667,5.2108 l 15.6777,4.9335 c 6.3819,-0.4906 13.63584,3.2763 18.62184,-1.8932 l -15.78904,40.0281 c -3.3969,-0.055 -3.9811,-0.2814 -8.5577,0.01 -5.5277,0.3496 -16.7568,-2.8443 -21.2836,-6.1088 -4.1095,-2.9635 -4.3401,-2.85 -7.447,-5.6168 z"
         style="fill:#ff0000;fill-opacity:1;stroke:none;stroke-width:0.23752156px;stroke-linecap:butt;stroke-linejoin:miter;stroke-opacity:1"
         inkscape:export-xdpi="300"
         inkscape:export-ydpi="300" />
      <path
         style="color:#000000;font-style:normal;font-variant:normal;font-weight:normal;font-stretch:normal;font-size:medium;line-height:normal;font-family:sans-serif;font-variant-ligatures:normal;font-variant-position:normal;font-variant-caps:normal;font-variant-numeric:normal;font-variant-alternates:normal;font-feature-settings:normal;text-indent:0;text-align:start;text-decoration:none;text-decoration-line:none;text-decoration-style:solid;text-decoration-color:#000000;letter-spacing:normal;word-spacing:normal;text-transform:none;writing-mode:lr-tb;direction:ltr;text-orientation:mixed;dominant-baseline:auto;baseline-shift:baseline;text-anchor:start;white-space:normal;shape-padding:0;clip-rule:nonzero;display:inline;overflow:visible;visibility:visible;opacity:1;isolation:auto;mix-blend-mode:normal;color-interpolation:sRGB;color-interpolation-filters:linearRGB;solid-color:#000000;solid-opacity:1;vector-effect:none;fill:#a30000;fill-opacity:1;fill-rule:nonzero;stroke:none;stroke-width:8.0794735;stroke-linecap:round;stroke-linejoin:miter;stroke-miterlimit:4;stroke-dasharray:none;stroke-dashoffset:0;stroke-opacity:1;color-rendering:auto;image-rendering:auto;shape-rendering:auto;text-rendering:auto;enable-background:accumulate"
         d="m 963.34726,2522.7385 c -0.1057,0 -0.2938,0.2134 -0.7152,0.7695 h 10e-4 l -8.3152,40.7158 -0.044,0.215 -0.026,0.2429 c -0.017,0.056 -0.021,0.1149 -0.035,0.1711 -0.2053,2.4811 2.4217,5.3934 6.5884,7.8038 l 2.6224,-12.9069 5.6017,-28.0484 -1.3705,-1.1979 c -1.6487,-1.655 -4.0845,-3.9264 -3.2065,-6.1696 -1.0358,-0.5889 -0.8688,-1.5994 -1.1012,-1.5953 z"
         id="path1467"
         inkscape:connector-curvature="0"
         sodipodi:nodetypes="cccccccccccccc"
         inkscape:export-xdpi="300"
         inkscape:export-ydpi="300" />
      <path
         style="color:#000000;font-style:normal;font-variant:normal;font-weight:normal;font-stretch:normal;font-size:medium;line-height:normal;font-family:sans-serif;font-variant-ligatures:normal;font-variant-position:normal;font-variant-caps:normal;font-variant-numeric:normal;font-variant-alternates:normal;font-feature-settings:normal;text-indent:0;text-align:start;text-decoration:none;text-decoration-line:none;text-decoration-style:solid;text-decoration-color:#000000;letter-spacing:normal;word-spacing:normal;text-transform:none;writing-mode:lr-tb;direction:ltr;text-orientation:mixed;dominant-baseline:auto;baseline-shift:baseline;text-anchor:start;white-space:normal;shape-padding:0;clip-rule:nonzero;display:inline;overflow:visible;visibility:visible;opacity:1;isolation:auto;mix-blend-mode:normal;color-interpolation:sRGB;color-interpolation-filters:linearRGB;solid-color:#000000;solid-opacity:1;vector-effect:none;fill:#a30000;fill-opacity:1;fill-rule:nonzero;stroke:none;stroke-width:8.0794735;stroke-linecap:round;stroke-linejoin:miter;stroke-miterlimit:4;stroke-dasharray:none;stroke-dashoffset:0;stroke-opacity:1;color-rendering:auto;image-rendering:auto;shape-rendering:auto;text-rendering:auto;enable-background:accumulate"
         d="m 1009.9377,2533.2903 -0.9632,1.9286 c -2.0134,1.5608 -4.1539,3.487 -6.6761,4.47 l -3.01794,-0.3627 -11.6365,27.6794 -4.9847,11.8364 c 3.5617,-0.147 8.8091,-1.1862 9.8257,-3.4844 l 17.51584,-39.5977 c 0.2636,-1.4315 0.3488,-1.3488 -0.063,-2.4696 z"
         id="path1469"
         inkscape:connector-curvature="0"
         sodipodi:nodetypes="ccccccsccc"
         inkscape:export-xdpi="300"
         inkscape:export-ydpi="300" />
      <path
         sodipodi:nodetypes="scss"
         inkscape:connector-curvature="0"
         id="path1481"
         d="m 1008.8383,2535.9094 c 6.091,-12.7874 -43.87944,-25.5082 -45.38804,-11.411 -0.2916,7.7704 30.1234,17.0179 41.50064,14.0238 1.9125,-0.5033 3.2871,-1.3525 3.8874,-2.6128 z"
         style="fill:none;fill-opacity:1;stroke:#ff0000;stroke-width:2;stroke-linecap:round;stroke-linejoin:miter;stroke-miterlimit:4;stroke-dasharray:none;stroke-opacity:1"
         inkscape:export-xdpi="300"
         inkscape:export-ydpi="300" />
      <path
         style="fill:none;stroke:#a30000;stroke-width:8.07900047;stroke-linecap:butt;stroke-linejoin:miter;stroke-miterlimit:4;stroke-dasharray:none;stroke-opacity:1"
         d="m 961.78266,2547.3144 c 1.3237,7.0181 28.6026,14.6831 33.6788,11.0421"
         id="path1485"
         inkscape:connector-curvature="0"
         sodipodi:nodetypes="cc"
         inkscape:export-xdpi="300"
         inkscape:export-ydpi="300" />
      <ellipse
         inkscape:export-ydpi="300"
         inkscape:export-xdpi="300"
         clip-path="url(#clipPath1481-29)"
         style="opacity:1;fill:#6f2301;fill-opacity:1;stroke:none;stroke-width:12.74422455;stroke-linecap:round;stroke-linejoin:round;stroke-miterlimit:4;stroke-dasharray:none;stroke-dashoffset:0;stroke-opacity:1;paint-order:fill markers stroke"
         id="ellipse1487"
         cx="1539.3593"
         cy="1550.2408"
         rx="19.937084"
         ry="9.9685421"
         transform="rotate(1.73561,-31185.367,-16133.035)" />
      <path
         style="opacity:1;fill:none;fill-opacity:1;stroke:#a30000;stroke-width:9.54623222;stroke-linecap:square;stroke-linejoin:round;stroke-miterlimit:4;stroke-dasharray:none;stroke-dashoffset:0;stroke-opacity:1;paint-order:fill markers stroke"
         id="path1489"
         sodipodi:type="arc"
         sodipodi:cx="-580.79645"
         sodipodi:cy="1407.116"
         sodipodi:rx="18.127384"
         sodipodi:ry="18.127384"
         sodipodi:start="0.87266463"
         sodipodi:end="5.4105207"
         d="m -569.14439,1421.0023 a 18.127384,18.127384 0 0 1 -24.83744,-1.4466 18.127384,18.127384 0 0 1 0,-24.8795 18.127384,18.127384 0 0 1 24.83744,-1.4466"
         sodipodi:open="true"
         clip-path="url(#clipPath1321-0)"
         transform="matrix(0.79456863,0.16404227,-0.17477262,0.84777962,1656.3748,1444.9149)"
         inkscape:export-xdpi="300"
         inkscape:export-ydpi="300" />
      <path
         sodipodi:nodetypes="ssssscccccccccsssssccscssscscsccc"
         inkscape:connector-curvature="0"
         id="path1491"
         transform="matrix(0.26458333,0,0,0.26458333,-177.33279,-412.34343)"
         d="m 4168.9902,10868.51 c -74.7731,6.032 -138.3886,83.013 -138.3886,206.074 0,109.715 58.149,212.499 137.9843,268.356 84.3614,59.024 185.2735,99.235 292.9551,13.382 35.4138,-28.235 74.3402,-62.004 90.6133,-96.769 23.235,-49.638 9.7889,-93.718 -49.5625,-123.875 -10.3098,-7.685 -22.2682,-12.658 -30,-19.873 0,0 0.064,2.37 0.418,4.457 -27.5048,-7.046 -39.326,-11.771 -53.0098,-11.785 -6.3704,0 -15.3254,1.293 -30.623,4.394 l 60.5273,24.504 4.4336,9.67 c 2.1358,-0.359 7.7936,-1.025 14.3144,-0.516 l -0.8808,2.6 c 4.1091,-1.204 11.7446,-1.344 13.9765,0.33 55.3763,41.534 -7.5315,149.346 -45.4375,177.076 -96.1629,70.347 -173.9906,27.622 -247.0058,-20.603 -72.6016,-47.952 -120.9082,-134.459 -120.9082,-231.348 0,-110.351 51.4294,-157.643 108.543,-166.744 57.1131,-9.101 101.6607,41.658 124.7011,95.154 6.6429,15.427 28.6048,15.171 34.8867,-0.406 11.1708,-27.696 35.8955,-48 67.25,-59.262 31.3546,-11.262 68.7019,-12.759 100.8516,-3.631 77.3126,24.69 90.4036,85.509 79.6231,144.207 -3.7777,20.569 -20.5455,65.99 -2.0586,68.489 16.0053,2.164 35.6172,-48.869 38.6091,-66.348 14.2884,-83.474 -31.7484,-160.584 -105.8533,-182.703 -40.365,-11.461 -84.8287,-9.637 -123.9492,4.414 -28.2269,10.138 -53.7422,27.258 -71.916,50.766 -39.9681,-61.244 -90.2808,-94.836 -150.0938,-90.01 z m 285.3477,278.535 c -1.1513,0.192 -1.2999,0.293 0.039,0.06 z"
         style="opacity:1;fill:#6f2301;fill-opacity:1;stroke:none;stroke-width:40.46562195;stroke-linecap:square;stroke-linejoin:round;stroke-miterlimit:4;stroke-dasharray:none;stroke-dashoffset:0;stroke-opacity:1;paint-order:fill markers stroke" />
    </g>
  </g>
</svg>
